#N canvas 2345 215 572 440 10;
#X msg 101 17 devices;
#X msg 275 69 open 0;
#X obj 121 107 comport 0 9600;
#X msg 219 42 close 0;
#X obj 94 185 print;
#X obj 268 127 print;
#X msg 36 50 ports;
#X obj 168 349 output~;
#X obj 186 275 osc~;
#X obj 168 171 mtof;
#X floatatom 27 149 5 0 0 0 - - -, f 5;
#X connect 0 0 2 0;
#X connect 1 0 2 0;
#X connect 2 0 4 0;
#X connect 2 0 9 0;
#X connect 2 0 10 0;
#X connect 2 1 5 0;
#X connect 3 0 2 0;
#X connect 6 0 2 0;
#X connect 8 0 7 0;
#X connect 8 0 7 1;
#X connect 9 0 8 0;
